<?xml version="1.0" encoding="UTF-8"?>
<svg version="1.1" xmlns="http://www.w3.org/2000/svg" width="1500" height="1500">
<path d="M0 0 C1.07636719 0.36480469 2.15273438 0.72960937 3.26171875 1.10546875 C12.65438497 4.49052558 21.27444189 9.20289122 30 14 C30.94746094 14.51175781 31.89492187 15.02351562 32.87109375 15.55078125 C40.12493324 19.50186077 46.71084552 24.21887434 53.36328125 29.1015625 C55.43998668 30.59679041 57.5258259 32.00919166 59.6875 33.375 C60.450625 33.91125 61.21375 34.4475 62 35 C62 35.66 62 36.32 62 37 C62.721875 37.20625 63.44375 37.4125 64.1875 37.625 C67.18794306 39.09188327 68.59745877 40.74189449 70.61328125 43.35546875 C72.12689412 45.1504857 73.75264793 46.56908262 75.5625 48.0625 C78.45994136 50.46449143 80.71001433 52.99932913 83 56 C83.59941406 56.59296875 84.19882813 57.1859375 84.81640625 57.796875 C87.28863043 60.2912121 89.51555725 62.91592072 91.75 65.625 C92.54921875 66.58664062 93.3484375 67.54828125 94.171875 68.5390625 C96 71 96 71 96 73 C96.66 73 97.32 73 98 73 C100.04169485 75.90548882 101 77.40142046 101 81 C99.36935236 82.05771739 97.69719127 83.05273046 96 84 C95.35417969 84.66902344 95.35417969 84.66902344 94.6953125 85.3515625 C92.41278984 87.57097394 89.85936704 89.14752873 87.1875 90.875 C81.21644947 94.80768226 75.98268178 98.85658655 71 104 C67.14296559 107.9672354 63.07078918 111.6108895 58.890625 115.23046875 C56.92091997 116.86863988 56.92091997 116.86863988 56 119 C55.34 119 54.68 119 54 119 C53.773125 119.721875 53.54625 120.44375 53.3125 121.1875 C52 124 52 124 49.78125 126.20703125 C46.57298075 129.42881848 43.89759692 132.85879997 41.1875 136.5 C40.66704102 137.19689941 40.14658203 137.89379883 39.61035156 138.61181641 C31.33793035 148.59637525 31.33793035 148.59637525 27 160 C26.00428872 161.0042704 25.00358634 162.00359925 24 163 C22.80114894 164.92788972 22.80114894 164.92788972 21.8125 167 C21.46832031 167.680625 21.12414063 168.36125 20.76953125 169.0625 C19.81543592 171.11723483 19.81543592 171.11723483 20 174 C19.34 174 18.68 174 18 174 C17.82984375 174.60585938 17.6596875 175.21171875 17.484375 175.8359375 C16.20959197 180.24343201 14.84090149 184.51838854 13.0625 188.75 C10.48741007 195.0051993 8.75910689 201.47729394 7 208 C6.77054688 208.81210937 6.54109375 209.62421875 6.3046875 210.4609375 C5.23488903 214.39357696 4.79634222 217.92684439 5 222 C4.34 222 3.68 222 3 222 C3.0309375 223.8253125 3.0309375 223.8253125 3.0625 225.6875 C3.10184801 228.00903251 2.99698278 230.01428274 2.51586914 232.29174805 C1.58372832 237.18537708 1.57281342 242.15639223 1.375 247.125 C1.3234375 248.20265625 1.271875 249.2803125 1.21875 250.390625 C0.9660167 256.56029082 1.08050994 262.51166113 1.77416992 268.6496582 C1.98288126 270.82183558 2.00370531 272.88421025 1.9375 275.0625 C2.0001743 279.01098089 2.62497638 282.40776776 3.4777832 286.2409668 C3.97991192 288.89386844 4.21604923 291.4367647 4.38671875 294.12890625 C4.89155674 300.01835322 6.24115341 305.45834183 7.875 311.125 C8.13152344 312.04925781 8.38804687 312.97351563 8.65234375 313.92578125 C10.0851547 319.03062025 11.64765042 324.06701174 13.39868164 329.07177734 C14 331 14 331 14.5625 334.5 C14.706875 335.325 14.85125 336.15 15 337 C15.66 337.33 16.32 337.66 17 338 C18.21733236 340.56959794 19.3496879 343.12631732 20.4375 345.75 C22.37705947 350.38825835 24.39043819 354.69063188 27 359 C27 359.66 27 360.32 27 361 C27.66 361.33 28.32 361.66 29 362 C30.06811881 363.74272017 31.0793305 365.52048183 32.0625 367.3125 C36.78399418 375.58005362 42.17002761 383.32589835 49 390 C49.804375 390.969375 50.60875 391.93875 51.4375 392.9375 C55.35618834 397.62081045 59.66295361 401.60318494 64.3125 405.53125 C66.65736704 407.57215279 68.80232893 409.80232893 71 412 C78.95075414 419.27513183 78.95075414 419.27513183 88 425 C88 425.66 88 426.32 88 427 C88.67417969 427.23460937 89.34835937 427.46921875 90.04296875 427.7109375 C93.73750346 429.32150085 96.94260922 431.42997138 100.3125 433.625 C106.67706882 437.7133696 113.15772846 441.24600619 120.03442383 444.39892578 C121.72468501 445.19542422 123.36780409 446.09042364 125 447 C126.33459401 451.00378204 125.00270481 453.57898355 123.625 457.375 C122.14235793 461.54594913 120.72757108 465.61765325 120 470 C119.34 470 118.68 470 118 470 C117.87625 470.70125 117.7525 471.4025 117.625 472.125 C116.67242457 476.50684698 115.21186754 480.50846732 113.4375 484.625 C112.36696546 487.13842892 111.53145508 489.3427246 111 492 C110.34 492 109.68 492 109 492 C108.88914062 492.86496094 108.77828125 493.72992187 108.6640625 494.62109375 C106.81323527 504.03853816 101.09676594 512.78882999 96.53125 521.12890625 C94.80508513 524.36546538 93.39565187 527.61055974 92 531 C91.32705725 532.46510765 90.63900261 533.92335044 89.9375 535.375 C89.61652344 536.04273438 89.29554688 536.71046875 88.96484375 537.3984375 C88 539 88 539 86 540 C85.29289322 541.64991582 84.63437344 543.3207762 84 545 C83 547 82 549 81 551 C80.67 551.99 80.34 552.98 80 554 C79.34 554 78.68 554 78 554 C77.7525 554.680625 77.505 555.36125 77.25 556.0625 C75.75674406 559.57165146 73.91877126 562.7021119 72 566 C71.3197633 567.32646156 70.64507739 568.65608877 70 570 C69.34 570 68.68 570 68 570 C67.73058594 570.72445312 67.46117187 571.44890625 67.18359375 572.1953125 C63.55081493 580.80367948 57.39162759 588.34198361 51.82055664 595.78466797 C49.34633649 599.10041453 47.09798259 602.42775937 45 606 C44.319375 606.845625 43.63875 607.69125 42.9375 608.5625 C41.26154537 610.67095905 40.08728664 612.55360505 39 615 C38.34 615 37.68 615 37 615 C36.78085938 615.69222656 36.56171875 616.38445313 36.3359375 617.09765625 C34.66134046 620.7357428 32.25969601 623.47346699 29.625 626.4375 C26.07528162 630.46652527 22.94992895 634.49521267 20 639 C18.82356937 640.48418885 17.61786347 641.94598077 16.375 643.375 C15.78460937 644.06335937 15.19421875 644.75171875 14.5859375 645.4609375 C13 647 13 647 11 647 C10.72414063 647.59039063 10.44828125 648.18078125 10.1640625 648.7890625 C7.03737007 654.72767966 2.24267813 658.75971245 -3.13671875 662.609375 C-5.17461845 664.06081679 -5.17461845 664.06081679 -7.375 666.375 C-17 676 -17 676 -23 678 C-24.00404035 678.99594325 -25.00378068 679.99623356 -26 681 C-27.796875 682.02734375 -27.796875 682.02734375 -29.75 682.9375 C-32.42456823 684.21855462 -35.00998466 685.55288596 -37.5625 687.0625 C-47.25 692.52272727 -47.25 692.52272727 -53 692 C-53.33 692.66 -53.66 693.32 -54 694 C-56.328125 694.59765625 -56.328125 694.59765625 -59.25 695.0625 C-60.20390625 695.21847656 -61.1578125 695.37445312 -62.140625 695.53515625 C-63.08421875 695.68855469 -64.0278125 695.84195313 -65 696 C-65.77811035 696.16733643 -66.5562207 696.33467285 -67.35791016 696.50708008 C-71.91011216 697.35635894 -76.50605812 697.42366151 -81.125 697.625 C-82.10726562 697.6765625 -83.08953125 697.728125 -84.1015625 697.78125 C-97.06412162 698.36115396 -109.57629728 696.7006774 -122 693 C-122.66 693 -123.32 693 -124 693 C-124 692.34 -124 691.68 -124 691 C-124.804375 690.896875 -125.60875 690.79375 -126.4375 690.6875 C-134.10671455 689.20747614 -141.15199706 686.16972676 -148.30078125 683.0859375 C-150.54246397 682.18407383 -152.64377143 681.50370682 -155 681 C-155 680.34 -155 679.68 -155 679 C-155.7326709 678.87093262 -156.4653418 678.74186523 -157.22021484 678.60888672 C-159.81473626 678.04058034 -162.03300889 677.28184355 -164.4765625 676.2578125 C-165.30728271 675.91508301 -166.13800293 675.57235352 -166.99389648 675.21923828 C-167.86216064 674.85813965 -168.7304248 674.49704102 -169.625 674.125 C-175.94399591 671.5398784 -182.14373707 669.12947172 -188.80859375 667.5703125 C-191 667 -191 667 -193.47265625 665.9921875 C-196.00500003 664.99803708 -198.32376852 664.46311509 -201 664 C-201.93457031 663.82339844 -202.86914062 663.64679687 -203.83203125 663.46484375 C-209.68195895 662.42979756 -215.07257384 661.90120956 -221 662 C-222.18078125 661.84015625 -223.3615625 661.6803125 -224.578125 661.515625 C-229.55329856 660.8642233 -234.48761266 660.80854424 -239.5 660.8125 C-240.93617676 660.81262085 -240.93617676 660.81262085 -242.40136719 660.81274414 C-256.06875631 660.58711639 -256.06875631 660.58711639 -269 664 C-270.16917969 664.1340625 -271.33835937 664.268125 -272.54296875 664.40625 C-277.28490567 664.9546737 -281.73660842 666.17310517 -286.3125 667.5 C-287.10978516 667.72558594 -287.90707031 667.95117188 -288.72851562 668.18359375 C-291.84209054 669.06869747 -294.92859654 669.97619885 -298 671 C-298.99 671 -299.98 671 -301 671 C-301.33 671.66 -301.66 672.32 -302 673 C-303.828125 673.89453125 -303.828125 673.89453125 -306.25 674.8125 C-307.14847656 675.15796875 -308.04695313 675.5034375 -308.97265625 675.859375 C-309.97167969 676.23578125 -310.97070312 676.6121875 -312 677 C-314.22965129 677.85290085 -316.45880836 678.70709465 -318.6875 679.5625 C-319.72261719 679.95566406 -320.75773437 680.34882812 -321.82421875 680.75390625 C-325.24916419 682.09776553 -328.61861669 683.55030606 -332 685 C-354.08604011 693.89272902 -374.96823259 698.09775052 -398.79296875 698.94921875 C-399.7471167 698.98362061 -400.70126465 699.01802246 -401.68432617 699.0534668 C-404 699 -404 699 -406 698 C-407.27875 697.9175 -408.5575 697.835 -409.875 697.75 C-420.99093546 696.56594964 -431.36417526 689.93458376 -441.19824219 684.91699219 C-443.79170985 683.59706475 -446.39559172 682.29817255 -449 681 C-449 680.34 -449 679.68 -449 679 C-449.53625 678.7525 -450.0725 678.505 -450.625 678.25 C-453.57017161 676.69990968 -456.25820869 674.88498152 -459 673 C-459.78375 672.46375 -460.5675 671.9275 -461.375 671.375 C-462.179375 670.694375 -462.179375 670.694375 -463 670 C-463 669.34 -463 668.68 -463 668 C-463.8353125 667.9071875 -463.8353125 667.9071875 -464.6875 667.8125 C-467.99068042 666.6519231 -469.71894733 664.59786554 -472 662 C-472 661.34 -472 660.68 -472 660 C-472.5671875 659.75894531 -473.134375 659.51789062 -473.71875 659.26953125 C-479.8767494 655.8425624 -484.72467635 649.4968447 -489 644 C-489.75410156 643.2678125 -490.50820313 642.535625 -491.28515625 641.78125 C-494.21863331 638.77601882 -496.68884149 635.61430571 -499.1875 632.25 C-502.05370755 628.03014248 -502.05370755 628.03014248 -506 625 C-507.10181237 623.24398654 -508.03718558 621.42911499 -509 619.59375 C-509.91759769 617.82455659 -509.91759769 617.82455659 -512 617 C-512.495 615.515 -512.495 615.515 -513 614 C-513.66 613.67 -514.32 613.34 -515 613 C-516.74839516 610.34243936 -517.99127482 608.02617555 -519 605 C-519.66 605 -520.32 605 -521 605 C-521 604.34 -521 603.68 -521 603 C-521.66 602.67 -522.32 602.34 -523 602 C-524.25390625 600.2578125 -524.25390625 600.2578125 -525.5625 598.125 C-525.99691406 597.42632813 -526.43132812 596.72765625 -526.87890625 596.0078125 C-528 594 -528 594 -529 591 C-529.66 590.67 -530.32 590.34 -531 590 C-531.144375 589.34 -531.28875 588.68 -531.4375 588 C-531.623125 587.34 -531.80875 586.68 -532 586 C-532.99 585.67 -533.98 585.34 -535 585 C-536.2109375 583.14453125 -536.2109375 583.14453125 -537.375 580.8125 C-538.9379064 577.83778389 -540.48189837 575.22491781 -542.6875 572.6875 C-544.62654947 570.43401008 -545.77037139 568.64843085 -547 566 C-547.66 565.34 -548.32 564.68 -549 564 C-549 563.01 -549 562.02 -549 561 C-549.66 561 -550.32 561 -551 561 C-551.37511719 560.2265625 -551.75023437 559.453125 -552.13671875 558.65625 C-554.84400645 553.14620349 -557.57278342 547.80521281 -561.01953125 542.71875 C-562 541 -562 541 -562.51171875 538.84375 C-562.67285156 538.2353125 -562.83398438 537.626875 -563 537 C-563.66 536.67 -564.32 536.34 -565 536 C-566.05674514 534.02939357 -567.04465952 532.02171327 -568 530 C-568.60748645 528.77705572 -569.21829218 527.55575587 -569.83203125 526.3359375 C-570.84363389 524.31349396 -571.85451526 522.2907059 -572.86328125 520.2668457 C-574.5094522 516.96656043 -576.16332293 513.67151608 -577.85546875 510.39453125 C-578.39816406 509.33621094 -578.94085937 508.27789063 -579.5 507.1875 C-579.9846875 506.25292969 -580.469375 505.31835938 -580.96875 504.35546875 C-582 502 -582 502 -582 499 C-582.66 498.67 -583.32 498.34 -584 498 C-584.89453125 496.13671875 -584.89453125 496.13671875 -585.8125 493.6875 C-587.31783943 489.76466379 -588.87142415 485.87350503 -590.5 482 C-591.33351656 480.00007636 -592.16685329 478.00007775 -593 476 C-593.39832031 475.04996094 -593.79664063 474.09992188 -594.20703125 473.12109375 C-594.57183594 472.23550781 -594.93664062 471.34992188 -595.3125 470.4375 C-595.80169922 469.25994141 -595.80169922 469.25994141 -596.30078125 468.05859375 C-597 466 -597 466 -597 463 C-597.66 462.67 -598.32 462.34 -599 462 C-599.96484375 459.59375 -599.96484375 459.59375 -600.9375 456.5 C-601.28554688 455.41074219 -601.63359375 454.32148437 -601.9921875 453.19921875 C-602.32476563 452.14347656 -602.65734375 451.08773438 -603 450 C-603.51713803 448.43627309 -604.03752395 446.87361299 -604.5625 445.3125 C-604.91441406 444.25095703 -604.91441406 444.25095703 -605.2734375 443.16796875 C-605.7902754 441.62579114 -606.31742075 440.08705134 -606.8515625 438.55078125 C-607.12742187 437.75027344 -607.40328125 436.94976563 -607.6875 436.125 C-607.93886719 435.40570312 -608.19023438 434.68640625 -608.44921875 433.9453125 C-609 432 -609 432 -609 429 C-609.66 428.67 -610.32 428.34 -611 428 C-611.55151367 426.22802734 -611.55151367 426.22802734 -611.98046875 423.9609375 C-612.89569864 419.44627865 -614.04997868 415.05313376 -615.3125 410.625 C-622.95711825 383.41349153 -622.95711825 383.41349153 -625 372 C-625.59197667 368.96434365 -626.23532171 365.94932258 -626.9375 362.9375 C-628.52722266 355.81933883 -629.72104738 348.61938118 -630.5625 341.375 C-630.79424685 338.13773912 -630.79424685 338.13773912 -632 336 C-632.20379734 334.19129862 -632.36500995 332.37763408 -632.5 330.5625 C-632.73306642 327.43691282 -633.00474943 324.98575171 -634 322 C-633.87890625 319.73828125 -633.87890625 319.73828125 -633.5625 317.3125 C-633.46066406 316.50425781 -633.35882812 315.69601562 -633.25390625 314.86328125 C-633.12822266 313.94095703 -633.12822266 313.94095703 -633 313 C-633.66 312.67 -634.32 312.34 -635 312 C-634.98839844 311.24976563 -634.97679687 310.49953125 -634.96484375 309.7265625 C-634.8981037 302.15633414 -635.1095776 294.73517704 -636.51147461 287.2800293 C-637.02091032 283.85960516 -637.12947439 280.62505408 -637.1328125 277.16796875 C-637.13410156 275.87439453 -637.13539063 274.58082031 -637.13671875 273.24804688 C-637.13462402 272.58023193 -637.1325293 271.91241699 -637.13037109 271.22436523 C-637.12504229 269.20353595 -637.13031985 267.18293161 -637.13671875 265.16210938 C-637.12994924 258.34859904 -636.87858814 251.75458563 -636 245 C-636.020625 243.9275 -636.04125 242.855 -636.0625 241.75 C-635.98619158 237.17149456 -635.23936891 232.82963729 -634.5 228.31640625 C-634.06487098 225.43027704 -633.77310564 222.59649043 -633.5625 219.6875 C-633.07042838 213.60370544 -631.89491441 207.6799812 -630.71875 201.69921875 C-630.30178893 199.55322889 -629.90686582 197.40224789 -629.5703125 195.2421875 C-626.61212382 178.42508746 -621.78377672 162.03997266 -616 146 C-615.74798828 145.29230469 -615.49597656 144.58460938 -615.23632812 143.85546875 C-611.42312241 133.21156121 -611.42312241 133.21156121 -609 132 C-608.7525 130.865625 -608.505 129.73125 -608.25 128.5625 C-607.20798477 123.88183481 -604.94096856 120.36218934 -602.3984375 116.34375 C-600.79953193 113.66402 -599.79339942 111.01491778 -599 108 C-598.34 108 -597.68 108 -597 108 C-596.76410156 107.15953125 -596.52820313 106.3190625 -596.28515625 105.453125 C-594.80134192 101.46621963 -592.79467159 98.26527644 -590.4375 94.75 C-587.54119471 90.47974122 -587.54119471 90.47974122 -585 86 C-584.34 86 -583.68 86 -583 86 C-582.76539063 85.46761719 -582.53078125 84.93523437 -582.2890625 84.38671875 C-580.61723893 81.29131208 -578.52877504 78.58048329 -576.375 75.8125 C-575.7094812 74.95192993 -575.7094812 74.95192993 -575.03051758 74.07397461 C-571.76104868 69.88476621 -568.3383042 65.87004722 -564.75390625 61.9453125 C-563.14061094 60.15595601 -561.62687863 58.32032161 -560.125 56.4375 C-559.42375 55.633125 -558.7225 54.82875 -558 54 C-557.34 54 -556.68 54 -556 54 C-556 53.34 -556 52.68 -556 52 C-554.42578125 50.66796875 -554.42578125 50.66796875 -552.3125 49.1875 C-548.87813356 46.70075312 -545.96387399 44.04187067 -543 41 C-537.49175824 36 -537.49175824 36 -535 36 C-535 35.34 -535 34.68 -535 34 C-533.05078125 32.58984375 -533.05078125 32.58984375 -530.3125 30.9375 C-526.01586616 28.29594705 -521.90038375 25.51599601 -517.8125 22.5625 C-510.63239234 17.49121256 -502.95610385 13.69431617 -495 10 C-494.04335449 9.54778076 -494.04335449 9.54778076 -493.06738281 9.08642578 C-474.47476275 0.34341075 -455.15745878 -5.20216052 -435 -9 C-433.74960937 -9.23589844 -432.49921875 -9.47179687 -431.2109375 -9.71484375 C-384.92961271 -17.28112239 -343.06700566 -2.58129454 -300.67773438 14.27685547 C-290.87153005 18.16820176 -281.05891743 21.81091125 -271 25 C-269.97479248 25.32887207 -268.94958496 25.65774414 -267.89331055 25.99658203 C-242.52914556 33.82580891 -217.2719673 22.1560045 -194.18139648 12.55102539 C-170.8231457 2.848867 -146.66414576 -5.35387735 -122 -11 C-121.26104492 -11.17789062 -120.52208984 -11.35578125 -119.76074219 -11.5390625 C-81.0801973 -20.552005 -36.81727629 -12.68563841 0 0 Z " fill="#000000" transform="translate(1005,521)"/>
<path d="M0 0 C5.18875324 17.97560101 1.29774158 43.90869635 -4 61.61328125 C-4.99217411 64.97349592 -5.72977625 68.3199525 -6.4375 71.75 C-7.57709504 76.76300584 -9.21647398 81.07604127 -11.46875 85.68359375 C-13.98511235 91.1335724 -16.08969674 96.75399969 -18.2331543 102.35961914 C-18.56226807 103.20258545 -18.89138184 104.04555176 -19.23046875 104.9140625 C-19.52332764 105.6767041 -19.81618652 106.4393457 -20.11791992 107.22509766 C-21 109 -21 109 -23 110 C-23.70710678 111.64991582 -24.36562656 113.3207762 -25 115 C-30.12039011 126.31875708 -37.93256677 136.17311902 -45.44921875 145.97460938 C-46.954128 147.94008909 -48.44613128 149.91486294 -49.9375 151.890625 C-54.78661527 158.25607871 -59.64789222 164.06102633 -66 169 C-68.98868962 171.44336 -71.89148689 173.89148689 -74.625 176.625 C-76.66518194 178.66518194 -78.59047318 180.4213445 -81 182 C-81.66 182 -82.32 182 -83 182 C-83 182.66 -83 183.32 -83 184 C-85.03753976 185.43194595 -87.05286967 186.72889327 -89.1875 188 C-90.0547168 188.53367187 -90.0547168 188.53367187 -90.93945312 189.078125 C-93.52899978 190.6464832 -96.0428087 192.01681979 -98.86328125 193.125 C-101.17278271 193.7970348 -101.17278271 193.7970348 -102 196 C-103.77734375 197.0703125 -103.77734375 197.0703125 -105.9375 198.125 C-106.64777344 198.47820312 -107.35804688 198.83140625 -108.08984375 199.1953125 C-110 200 -110 200 -112 200 C-112 200.66 -112 201.32 -112 202 C-113.07378906 202.39832031 -114.14757812 202.79664063 -115.25390625 203.20703125 C-116.69013758 203.74209782 -118.12633362 204.27725914 -119.5625 204.8125 C-120.26697266 205.07353516 -120.97144531 205.33457031 -121.69726562 205.60351562 C-125.0949505 206.87177588 -128.44411143 208.18025411 -131.75390625 209.6640625 C-134.50681776 210.79702969 -136.45290745 211.38347852 -139.375 211.5625 C-141.169375 211.7790625 -141.169375 211.7790625 -143 212 C-143.33 212.66 -143.66 213.32 -144 214 C-151.33611782 216.37474813 -159.42791502 216.61854479 -167.0625 217.1875 C-168.18205078 217.28224609 -169.30160156 217.37699219 -170.45507812 217.47460938 C-176.8267238 217.96416104 -182.6767943 217.94346244 -189 217 C-189.981606 211.01053966 -190.34808402 205.05957318 -190.625 199 C-190.6765625 198.0409375 -190.728125 197.081875 -190.78125 196.09375 C-191.02369833 190.90250347 -190.92993143 186.13975617 -190 181 C-189.85820313 179.98679687 -189.71640625 178.97359375 -189.5703125 177.9296875 C-187.0091357 160.3609133 -182.16532036 143.26527721 -175 127 C-174.74025391 126.40429199 -174.48050781 125.80858398 -174.21289062 125.19482422 C-169.89680613 115.3835924 -164.94032773 106.28052161 -159.1015625 97.29296875 C-157.56447744 94.88448788 -156.18666228 92.5884886 -155 90 C-154.34 90 -153.68 90 -153 90 C-152.78085937 89.319375 -152.56171875 88.63875 -152.3359375 87.9375 C-150.61188439 84.14659959 -148.23834668 81.21854276 -145.625 78 C-145.14289062 77.39671875 -144.66078125 76.7934375 -144.1640625 76.171875 C-143.22071288 74.99268798 -142.2732457 73.81678084 -141.32128906 72.64453125 C-140.11142242 71.13868097 -138.94028746 69.60192311 -137.7734375 68.0625 C-137.18820312 67.381875 -136.60296875 66.70125 -136 66 C-135.34 66 -134.68 66 -134 66 C-133.73574219 65.40960938 -133.47148438 64.81921875 -133.19921875 64.2109375 C-129.86848335 58.07023314 -123.35280654 53.37257985 -118 49 C-117.02417969 48.19691406 -116.04835938 47.39382813 -115.04296875 46.56640625 C-106.12975817 39.33693294 -96.78165882 32.99294019 -87 27 C-86.35337402 26.60039062 -85.70674805 26.20078125 -85.04052734 25.7890625 C-60.61273071 10.8529591 -29.06027775 -1.51180636 0 0 Z " fill="#000000" transform="translate(937,281)"/>
<path d="" fill="#000000" transform="translate(0,0)"/>
<path d="" fill="#000000" transform="translate(0,0)"/>
<path d="" fill="#000000" transform="translate(0,0)"/>
<path d="" fill="#000000" transform="translate(0,0)"/>
</svg>
