<?xml version="1.0" encoding="UTF-8"?>
<svg version="1.1" xmlns="http://www.w3.org/2000/svg" width="100" height="100">
<path d="M0 0 C0.71081223 -0.00978378 1.42162445 -0.01956757 2.15397644 -0.02964783 C4.51189297 -0.05961704 6.86975255 -0.08099471 9.2277832 -0.09985352 C10.43654082 -0.10971126 10.43654082 -0.10971126 11.66971779 -0.11976814 C15.93767161 -0.15237309 20.20560039 -0.17681761 24.47363281 -0.19628906 C28.00167331 -0.21408242 31.52891152 -0.2488677 35.05664062 -0.29882812 C39.31898322 -0.35912158 43.58058356 -0.38977752 47.84333229 -0.39946175 C49.46483811 -0.40800466 51.08632472 -0.42679436 52.70758629 -0.45620537 C66.98748 -0.70124262 66.98748 -0.70124262 71.57861328 3.12255859 C74.54855364 6.7706993 75.21271595 8.14284203 75.2487793 12.68676758 C75.25904144 13.61468109 75.26930359 14.5425946 75.27987671 15.49862671 C75.28717804 16.50382355 75.29447937 17.50902039 75.30200195 18.54467773 C75.33006852 20.66187299 75.35873297 22.77906039 75.38793945 24.89624023 C75.42923219 28.24291787 75.46610935 31.5894485 75.49243164 34.9362793 C75.52000296 38.16022238 75.56587399 41.38349279 75.61450195 44.60717773 C75.61775482 45.60832611 75.62100769 46.60947449 75.62435913 47.64096069 C75.6409256 48.57517853 75.65749207 49.50939636 75.67456055 50.47192383 C75.6826474 51.29195892 75.69073425 52.11199402 75.69906616 52.95687866 C76.17898475 55.7138045 77.34126364 57.06591282 79.09106445 59.20874023 C80.00842815 63.75423605 79.49832861 67.37854792 77.46606445 71.52124023 C73.96651765 75.48125372 70.9202752 77.94255341 65.60058594 78.7166748 C64.31740479 78.71985718 63.03422363 78.72303955 61.7121582 78.72631836 C60.99915558 78.73332764 60.28615295 78.74033691 59.55154419 78.74755859 C57.21014699 78.76506908 54.86997253 78.7535418 52.52856445 78.73999023 C50.89241302 78.74268718 49.25626315 78.74657128 47.62011719 78.75158691 C44.19719121 78.75747251 40.77468382 78.74894967 37.35180664 78.73022461 C32.97359395 78.7074352 28.59636217 78.72056338 24.21818542 78.74451447 C20.84143744 78.7589981 17.46492039 78.7543548 14.08816528 78.7440033 C12.47429283 78.74134308 10.86039913 78.74458091 9.24655151 78.75392151 C6.9871298 78.76413005 4.7292762 78.74852879 2.4699707 78.72631836 C1.18678955 78.72313599 -0.0963916 78.71995361 -1.41845703 78.7166748 C-8.24081553 77.72388493 -11.9508091 73.41084928 -15.90893555 68.20874023 C-17.07236781 65.8818757 -17.10789543 64.3615261 -17.15893555 61.77124023 C-17.1847168 60.9887793 -17.21049805 60.20631836 -17.23706055 59.40014648 C-16.90893555 57.20874023 -16.90893555 57.20874023 -15.41148376 55.86349487 C-13.42585586 53.67672512 -13.53665661 52.46373246 -13.54003906 49.54125977 C-13.53315567 48.59662872 -13.52627228 47.65199768 -13.5191803 46.67874146 C-13.52533859 45.65996918 -13.53149689 44.6411969 -13.5378418 43.59155273 C-13.52045833 41.43660324 -13.50287396 39.28165536 -13.48510742 37.12670898 C-13.47503293 33.72742736 -13.4714383 30.32825101 -13.47314453 26.92895508 C-13.46957525 23.64950072 -13.44223158 20.37086208 -13.4128418 17.09155273 C-13.42102432 16.07682892 -13.42920685 15.0621051 -13.43763733 14.01663208 C-13.39066787 9.56596398 -13.36301954 6.95130043 -11.00244141 3.09106445 C-7.34702452 -0.19561359 -4.85781927 0.05983158 0 0 Z " fill="#D8EDFE" transform="translate(18.908935546875,10.791259765625)"/>
<path d="M0 0 C0.71081223 -0.00978378 1.42162445 -0.01956757 2.15397644 -0.02964783 C4.51189297 -0.05961704 6.86975255 -0.08099471 9.2277832 -0.09985352 C10.43654082 -0.10971126 10.43654082 -0.10971126 11.66971779 -0.11976814 C15.93767161 -0.15237309 20.20560039 -0.17681761 24.47363281 -0.19628906 C28.00167331 -0.21408242 31.52891152 -0.2488677 35.05664062 -0.29882812 C39.31898322 -0.35912158 43.58058356 -0.38977752 47.84333229 -0.39946175 C49.46483811 -0.40800466 51.08632472 -0.42679436 52.70758629 -0.45620537 C66.98748 -0.70124262 66.98748 -0.70124262 71.57861328 3.12255859 C74.54855364 6.7706993 75.21271595 8.14284203 75.2487793 12.68676758 C75.25904144 13.61468109 75.26930359 14.5425946 75.27987671 15.49862671 C75.28717804 16.50382355 75.29447937 17.50902039 75.30200195 18.54467773 C75.33006852 20.66187299 75.35873297 22.77906039 75.38793945 24.89624023 C75.42923219 28.24291787 75.46610935 31.5894485 75.49243164 34.9362793 C75.52000296 38.16022238 75.56587399 41.38349279 75.61450195 44.60717773 C75.61775482 45.60832611 75.62100769 46.60947449 75.62435913 47.64096069 C75.6409256 48.57517853 75.65749207 49.50939636 75.67456055 50.47192383 C75.6826474 51.29195892 75.69073425 52.11199402 75.69906616 52.95687866 C76.17898475 55.7138045 77.34126364 57.06591282 79.09106445 59.20874023 C80.00842815 63.75423605 79.49832861 67.37854792 77.46606445 71.52124023 C73.96651765 75.48125372 70.9202752 77.94255341 65.60058594 78.7166748 C64.31740479 78.71985718 63.03422363 78.72303955 61.7121582 78.72631836 C60.99915558 78.73332764 60.28615295 78.74033691 59.55154419 78.74755859 C57.21014699 78.76506908 54.86997253 78.7535418 52.52856445 78.73999023 C50.89241302 78.74268718 49.25626315 78.74657128 47.62011719 78.75158691 C44.19719121 78.75747251 40.77468382 78.74894967 37.35180664 78.73022461 C32.97359395 78.7074352 28.59636217 78.72056338 24.21818542 78.74451447 C20.84143744 78.7589981 17.46492039 78.7543548 14.08816528 78.7440033 C12.47429283 78.74134308 10.86039913 78.74458091 9.24655151 78.75392151 C6.9871298 78.76413005 4.7292762 78.74852879 2.4699707 78.72631836 C1.18678955 78.72313599 -0.0963916 78.71995361 -1.41845703 78.7166748 C-8.24081553 77.72388493 -11.9508091 73.41084928 -15.90893555 68.20874023 C-17.07236781 65.8818757 -17.10789543 64.3615261 -17.15893555 61.77124023 C-17.1847168 60.9887793 -17.21049805 60.20631836 -17.23706055 59.40014648 C-16.90893555 57.20874023 -16.90893555 57.20874023 -15.41148376 55.86349487 C-13.42585586 53.67672512 -13.53665661 52.46373246 -13.54003906 49.54125977 C-13.53315567 48.59662872 -13.52627228 47.65199768 -13.5191803 46.67874146 C-13.52533859 45.65996918 -13.53149689 44.6411969 -13.5378418 43.59155273 C-13.52045833 41.43660324 -13.50287396 39.28165536 -13.48510742 37.12670898 C-13.47503293 33.72742736 -13.4714383 30.32825101 -13.47314453 26.92895508 C-13.46957525 23.64950072 -13.44223158 20.37086208 -13.4128418 17.09155273 C-13.42102432 16.07682892 -13.42920685 15.0621051 -13.43763733 14.01663208 C-13.39066787 9.56596398 -13.36301954 6.95130043 -11.00244141 3.09106445 C-7.34702452 -0.19561359 -4.85781927 0.05983158 0 0 Z M-4.90893555 9.20874023 C-5.0024047 10.86612467 -5.02638532 12.52748667 -5.02246094 14.1875 C-5.02234009 15.26342407 -5.02221924 16.33934814 -5.02209473 17.44787598 C-5.01697876 18.58712524 -5.01186279 19.72637451 -5.0065918 20.90014648 C-5.00558472 21.94102417 -5.00457764 22.98190186 -5.00354004 24.05432129 C-4.99828955 27.95997207 -4.98432844 31.86560721 -4.97143555 35.77124023 C-4.95081055 44.49561523 -4.93018555 53.21999023 -4.90893555 62.20874023 C18.19106445 62.20874023 41.29106445 62.20874023 65.09106445 62.20874023 C65.11168945 53.48436523 65.13231445 44.75999023 65.15356445 35.77124023 C65.16266846 33.01337158 65.17177246 30.25550293 65.18115234 27.4140625 C65.18407129 25.24275766 65.1866199 23.07145227 65.1887207 20.90014648 C65.19383667 19.76089722 65.19895264 18.62164795 65.20422363 17.44787598 C65.20434448 16.3719519 65.20446533 15.29602783 65.20458984 14.1875 C65.20681046 13.2481813 65.20903107 12.30886261 65.21131897 11.34107971 C65.3294909 9.22510983 65.3294909 9.22510983 64.09106445 8.20874023 C61.97968545 8.10925831 59.8649416 8.08074385 57.7512207 8.0793457 C57.08943817 8.07759338 56.42765564 8.07584106 55.74581909 8.07403564 C53.54837456 8.06961806 51.35100987 8.07255477 49.15356445 8.07592773 C47.63281234 8.07525467 46.11206034 8.07428462 44.59130859 8.07302856 C41.40013609 8.07155172 38.20899153 8.07370571 35.01782227 8.07836914 C30.91841915 8.08406643 26.8190815 8.08078735 22.71968079 8.07479668 C19.57824201 8.0711907 16.43681887 8.07232982 13.29537964 8.07492447 C11.78343702 8.07559364 10.27149299 8.07476567 8.759552 8.07244492 C6.64996558 8.06991778 4.54048658 8.0737598 2.4309082 8.0793457 C1.22813232 8.0801413 0.02535645 8.08093689 -1.21386719 8.08175659 C-3.8264074 7.90186431 -3.8264074 7.90186431 -4.90893555 9.20874023 Z " fill="#E1E1E2" transform="translate(18.908935546875,10.791259765625)"/>
<path d="M0 0 C1.01755371 -0.00788544 1.01755371 -0.00788544 2.05566406 -0.01593018 C4.29776035 -0.02913276 6.53914651 -0.02039179 8.78125 -0.01025391 C10.3391941 -0.01227458 11.89713727 -0.01518597 13.45507812 -0.01895142 C16.72014369 -0.0233751 19.98496305 -0.0169425 23.25 -0.00292969 C27.43676349 0.01416247 31.62295007 0.00432148 35.80969238 -0.01364708 C39.02673699 -0.02448387 42.24364465 -0.02103911 45.46069336 -0.0132637 C47.0044766 -0.01126139 48.54827225 -0.01372207 50.09204102 -0.02070236 C52.24919604 -0.02831541 54.40541478 -0.01671613 56.5625 0 C57.79033203 0.00238678 59.01816406 0.00477356 60.28320312 0.00723267 C63.28125 0.38818359 63.28125 0.38818359 65.17988586 1.59855652 C66.65132078 3.98951849 66.64258579 5.607852 66.62182617 8.41040039 C66.62159958 9.43123215 66.62137299 10.4520639 66.62113953 11.50382996 C66.60565567 12.60390884 66.59017181 13.70398773 66.57421875 14.83740234 C66.56997391 15.96515579 66.56572906 17.09290924 66.56135559 18.25483704 C66.54454311 21.86202726 66.50688528 25.46866181 66.46875 29.07568359 C66.45370653 31.51903491 66.44001754 33.96239497 66.42773438 36.40576172 C66.39463116 42.40009241 66.34440593 48.39409831 66.28125 54.38818359 C67.60125 54.38818359 68.92125 54.38818359 70.28125 54.38818359 C69.79261364 60.74045632 69.79261364 60.74045632 67.40625 63.76318359 C63.62599127 66.65396968 60.31703572 66.53163622 55.7019043 66.58105469 C54.70620926 66.59332092 54.70620926 66.59332092 53.69039917 66.60583496 C51.49543143 66.63063042 49.3005281 66.64718969 47.10546875 66.66162109 C46.35446207 66.66694477 45.60345539 66.67226845 44.82969093 66.67775345 C40.85465135 66.70445944 36.87964291 66.72384256 32.90454102 66.73828125 C29.61910156 66.75162082 26.33428317 66.77947605 23.04907227 66.8203125 C19.0773771 66.86967789 15.10624521 66.89440663 11.13425636 66.90150833 C9.62359275 66.90821233 8.11294128 66.92341248 6.60245323 66.94739914 C-6.69237018 67.14647998 -6.69237018 67.14647998 -10.63745117 64.09375 C-13.15622932 60.81948614 -13.55846346 58.47549025 -13.71875 54.38818359 C-12.39875 54.38818359 -11.07875 54.38818359 -9.71875 54.38818359 C-9.72541183 53.75591354 -9.73207367 53.12364349 -9.73893738 52.47221375 C-9.80521147 45.90267004 -9.85051761 39.333221 -9.88354492 32.76342773 C-9.89864881 30.31026351 -9.91913321 27.85712636 -9.94506836 25.40405273 C-9.98138057 21.88176805 -9.99846036 18.35983978 -10.01171875 14.83740234 C-10.02720261 13.73732346 -10.04268646 12.63724457 -10.05863953 11.50382996 C-10.05886612 10.4829982 -10.05909271 9.46216644 -10.05932617 8.41040039 C-10.06598801 7.5110527 -10.07264984 6.61170502 -10.07951355 5.68510437 C-9.71875 3.38818359 -9.71875 3.38818359 -8.61738586 1.59855652 C-5.7561924 -0.22544311 -3.37171586 0.00655427 0 0 Z M-6.71875 4.38818359 C-6.81221915 6.04556803 -6.83619977 7.70693003 -6.83227539 9.36694336 C-6.83215454 10.44286743 -6.83203369 11.5187915 -6.83190918 12.62731934 C-6.82679321 13.7665686 -6.82167725 14.90581787 -6.81640625 16.07958984 C-6.81539917 17.12046753 -6.81439209 18.16134521 -6.81335449 19.23376465 C-6.80810401 23.13941543 -6.79414289 27.04505056 -6.78125 30.95068359 C-6.760625 39.67505859 -6.74 48.39943359 -6.71875 57.38818359 C16.38125 57.38818359 39.48125 57.38818359 63.28125 57.38818359 C63.301875 48.66380859 63.3225 39.93943359 63.34375 30.95068359 C63.352854 28.19281494 63.36195801 25.43494629 63.37133789 22.59350586 C63.37425684 20.42220102 63.37680545 18.25089563 63.37890625 16.07958984 C63.38402222 14.94034058 63.38913818 13.80109131 63.39440918 12.62731934 C63.39453003 11.55139526 63.39465088 10.47547119 63.39477539 9.36694336 C63.396996 8.42762466 63.39921661 7.48830597 63.40150452 6.52052307 C63.51967645 4.40455319 63.51967645 4.40455319 62.28125 3.38818359 C60.16987099 3.28870167 58.05512714 3.26018721 55.94140625 3.25878906 C55.27962372 3.25703674 54.61784119 3.25528442 53.93600464 3.253479 C51.7385601 3.24906142 49.54119542 3.25199813 47.34375 3.25537109 C45.82299789 3.25469803 44.30224588 3.25372798 42.78149414 3.25247192 C39.59032164 3.25099508 36.39917708 3.25314907 33.20800781 3.2578125 C29.1086047 3.26350979 25.00926704 3.26023071 20.90986633 3.25424004 C17.76842756 3.25063406 14.62700442 3.25177318 11.48556519 3.25436783 C9.97362256 3.255037 8.46167854 3.25420903 6.94973755 3.25188828 C4.84015113 3.24936114 2.73067213 3.25320316 0.62109375 3.25878906 C-0.58168213 3.25958466 -1.78445801 3.26038025 -3.02368164 3.26119995 C-5.63622185 3.08130767 -5.63622185 3.08130767 -6.71875 4.38818359 Z " fill="#413A6F" transform="translate(20.71875,15.61181640625)"/>
<path d="M0 0 C0.66178253 -0.00175232 1.32356506 -0.00350464 2.00540161 -0.00531006 C4.20284615 -0.00972764 6.40021083 -0.00679094 8.59765625 -0.00341797 C10.11840836 -0.00409104 11.63916037 -0.00506108 13.15991211 -0.00631714 C16.35108461 -0.00779398 19.54222917 -0.00563999 22.73339844 -0.00097656 C26.83280155 0.00472073 30.93213921 0.00144165 35.03153992 -0.00454903 C38.17297869 -0.008155 41.31440183 -0.00701589 44.45584106 -0.00442123 C45.96778369 -0.00375207 47.47972771 -0.00458003 48.9916687 -0.00690079 C51.10125512 -0.00942792 53.21073412 -0.00558591 55.3203125 0 C56.52308838 0.00079559 57.72586426 0.00159119 58.96508789 0.00241089 C61.66015625 0.12939453 61.66015625 0.12939453 62.66015625 1.12939453 C62.7536254 2.78677897 62.77760602 4.44814097 62.77368164 6.1081543 C62.77356079 7.18407837 62.77343994 8.26000244 62.77331543 9.36853027 C62.76819946 10.50777954 62.7630835 11.64702881 62.7578125 12.82080078 C62.75680542 13.86167847 62.75579834 14.90255615 62.75476074 15.97497559 C62.74951026 19.88062637 62.73554914 23.7862615 62.72265625 27.69189453 C62.70203125 36.41626953 62.68140625 45.14064453 62.66015625 54.12939453 C39.56015625 54.12939453 16.46015625 54.12939453 -7.33984375 54.12939453 C-7.36046875 45.40501953 -7.38109375 36.68064453 -7.40234375 27.69189453 C-7.41144775 24.93402588 -7.42055176 22.17615723 -7.42993164 19.3347168 C-7.43285059 17.16341195 -7.4353992 14.99210657 -7.4375 12.82080078 C-7.44261597 11.68155151 -7.44773193 10.54230225 -7.45300293 9.36853027 C-7.45312378 8.2926062 -7.45324463 7.21668213 -7.45336914 6.1081543 C-7.45558975 5.1688356 -7.45781036 4.22951691 -7.46009827 3.26173401 C-7.20523429 -1.25748521 -3.79020587 0.00250709 0 0 Z M-3.33984375 4.12939453 C-3.33984375 18.97939453 -3.33984375 33.82939453 -3.33984375 49.12939453 C17.12015625 49.12939453 37.58015625 49.12939453 58.66015625 49.12939453 C58.66015625 34.27939453 58.66015625 19.42939453 58.66015625 4.12939453 C38.20015625 4.12939453 17.74015625 4.12939453 -3.33984375 4.12939453 Z " fill="#9ED3FE" transform="translate(21.33984375,18.87060546875)"/>
<path d="M0 0 C0.69787628 -0.00350464 1.39575256 -0.00700928 2.11477661 -0.01062012 C4.421671 -0.01942276 6.72825873 -0.01359359 9.03515625 -0.00683594 C10.63794005 -0.00818301 12.24072346 -0.0101239 13.84350586 -0.01263428 C17.20267629 -0.01558355 20.56174037 -0.01129426 23.92089844 -0.00195312 C28.228617 0.00944134 32.53608636 0.00288081 36.84379578 -0.00909805 C40.15346151 -0.01632199 43.46306808 -0.01402627 46.7727356 -0.00884247 C48.36117584 -0.00750745 49.94962143 -0.00914854 51.53805542 -0.01380157 C53.75728607 -0.01887561 55.97611202 -0.01114452 58.1953125 0 C59.45867432 0.00159119 60.72203613 0.00318237 62.02368164 0.00482178 C65.09765625 0.25878906 65.09765625 0.25878906 68.09765625 2.25878906 C65.49124842 5.34179128 63.97320473 7.08226582 59.94848633 7.89370728 C58.76665771 7.89768524 57.5848291 7.90166321 56.3671875 7.90576172 C55.3832753 7.91890411 55.3832753 7.91890411 54.37948608 7.93231201 C52.22235956 7.95422666 50.06730169 7.93978517 47.91015625 7.92285156 C46.40469979 7.92622207 44.899246 7.93107665 43.39379883 7.93734741 C40.24306253 7.94470785 37.09303637 7.93404124 33.94238281 7.91064453 C29.9101967 7.88215571 25.87967454 7.89856435 21.84754944 7.92850685 C18.74014827 7.94660316 15.63313952 7.94081145 12.52572632 7.92786789 C11.03941652 7.92454025 9.55307071 7.92859844 8.06680298 7.94026566 C5.98628852 7.95301481 3.90844145 7.9335491 1.828125 7.90576172 C0.05538208 7.89979477 0.05538208 7.89979477 -1.75317383 7.89370728 C-5.77789223 7.08226582 -7.29593592 5.34179128 -9.90234375 2.25878906 C-6.21673771 -0.19828163 -4.39753792 0.00553864 0 0 Z " fill="#6F7BBF" transform="translate(19.90234375,71.7412109375)"/>
<path d="M0 0 C0.99 0.495 0.99 0.495 2 1 C2.37233816 5.65422701 2.46507989 9.05195253 0.375 13.3125 C-3.12802531 17.27644969 -6.16963881 19.73768015 -11.49720764 20.50120544 C-13.42650368 20.5014547 -13.42650368 20.5014547 -15.39477539 20.50170898 C-16.46668877 20.50981346 -16.46668877 20.50981346 -17.56025696 20.51808167 C-19.90648682 20.53052041 -22.25147791 20.51411351 -24.59765625 20.49609375 C-26.23620162 20.49624884 -27.87474736 20.4977394 -29.51329041 20.50050354 C-32.94042255 20.50188529 -36.36713504 20.48936606 -39.79418945 20.46655273 C-44.18134444 20.43814604 -48.56780376 20.44091438 -52.95501041 20.45364285 C-56.3359926 20.46060541 -59.71681467 20.45280457 -63.09777641 20.44038582 C-64.71525902 20.4358785 -66.33275886 20.43552823 -67.950243 20.43945122 C-70.2120589 20.44236977 -72.47292362 20.42582792 -74.73461914 20.40405273 C-76.0200209 20.39864975 -77.30542267 20.39324677 -78.629776 20.38768005 C-82.19859795 19.97715509 -84.11312454 19.08093336 -87 17 C-86.34 16.67 -85.68 16.34 -85 16 C-84.34 16.33 -83.68 16.66 -83 17 C-80.76027288 17.11262215 -78.51714593 17.1593911 -76.2746582 17.17700195 C-75.23770058 17.18685875 -75.23770058 17.18685875 -74.17979431 17.19691467 C-71.88678887 17.21665979 -69.59384907 17.22831508 -67.30078125 17.23828125 C-66.12512132 17.24439454 -66.12512132 17.24439454 -64.92571068 17.25063133 C-60.77445107 17.27150079 -56.62322457 17.28579668 -52.47192383 17.29516602 C-48.19244624 17.30621101 -43.91349142 17.34058577 -39.63419819 17.38033772 C-36.33724532 17.40654338 -33.040416 17.4148615 -29.74336815 17.41844749 C-28.16657177 17.42330607 -26.58978064 17.43489932 -25.01308632 17.45348549 C-22.79908118 17.47795449 -20.58641469 17.47689828 -18.37231445 17.4699707 C-17.11481888 17.47583694 -15.8573233 17.48170319 -14.5617218 17.48774719 C-10.06357303 16.87176437 -7.74489199 15.54657869 -4 13 C-1.21440426 8.82160638 -0.49574107 4.95741066 0 0 Z " fill="#020202" transform="translate(96,69)"/>
<path d="M0 0 C0.99 0.33 1.98 0.66 3 1 C2.67 1.66 2.34 2.32 2 3 C2.99 3.66 3.98 4.32 5 5 C5.125 7.875 5.125 7.875 5 11 C5.20625 11.7425 5.4125 12.485 5.625 13.25 C5.74875 13.8275 5.8725 14.405 6 15 C3.47982574 17.52017426 2.48500151 17.29730377 -1 17.3125 C-1.886875 17.32925781 -2.77375 17.34601562 -3.6875 17.36328125 C-4.450625 17.24339844 -5.21375 17.12351562 -6 17 C-8.67927341 12.98108988 -8.15601248 10.75838077 -8 6 C-7.05125 5.566875 -6.1025 5.13375 -5.125 4.6875 C-1.79958063 3.20697799 -1.79958063 3.20697799 0 0 Z " fill="#433C71" transform="translate(50,37)"/>
<path d="M0 0 C4.62 0 9.24 0 14 0 C13.67 0.99 13.34 1.98 13 3 C9.04 3 5.08 3 1 3 C0.67 2.01 0.34 1.02 0 0 Z " fill="#423C72" transform="translate(42,73)"/>
<path d="M0 0 C0.99 0.33 1.98 0.66 3 1 C2.67 1.66 2.34 2.32 2 3 C2.66 3.66 3.32 4.32 4 5 C1.03 5 -1.94 5 -5 5 C-3.35 3.35 -1.7 1.7 0 0 Z " fill="#858BB0" transform="translate(50,37)"/>
</svg>
